<?xml version="1.0" encoding="UTF-8"?>
<svg width="116px" height="13px" viewBox="0 0 116 13" version="1.1" xmlns="http://www.w3.org/2000/svg" xmlns:xlink="http://www.w3.org/1999/xlink">
    <title>35CB093A-975A-4372-9BAE-8B10FBE7FA6E</title>
    <g id="WorkHands_Website_Pages" stroke="none" stroke-width="1" fill="none" fill-rule="evenodd">
        <g id="01_WH_Homepage_Desktop_R3.0_Option-2" transform="translate(-53.000000, -33.000000)" fill="#F9F5EC" fill-rule="nonzero">
            <g id="Navigation-/Main-Navigation" transform="translate(0.000000, 1.000000)">
                <g id="Logo/Reverse" transform="translate(52.325581, 32.500000)">
                    <g id="Group-9" transform="translate(0.228140, 0.329535)">
                        <g id="Logo/WORKHANDS-Ivory" transform="translate(0.764319, 0.075560)">
                            <path d="M5.61840325,11.8700947 L8.20838972,3.84844384 C8.24086604,3.74560217 8.27469553,3.63464141 8.30987821,3.51556157 C8.34506089,3.39648173 8.37889039,3.26928281 8.41136671,3.13396482 C8.44384303,3.26928281 8.47767253,3.39648173 8.51285521,3.51556157 C8.54803789,3.63464141 8.58186739,3.74560217 8.61434371,3.84844384 L8.61434371,3.84844384 L11.1799729,11.8700947 L13.1529093,11.8700947 L16.7983762,0.129905277 L15.0852503,0.129905277 C14.9012179,0.129905277 14.744249,0.178619756 14.6143437,0.276048714 C14.4844384,0.373477673 14.4005413,0.48985115 14.3626522,0.625169147 L14.3626522,0.625169147 L12.3653586,7.64817321 C12.3220568,7.81596752 12.2801083,7.99729364 12.2395129,8.19215156 C12.1989175,8.38700947 12.1596752,8.58998647 12.1217862,8.80108254 C12.0351827,8.37889039 11.932341,7.99458728 11.8132612,7.64817321 L11.8132612,7.64817321 L9.52368065,0.625169147 C9.47496617,0.473612991 9.38836265,0.353179973 9.26387009,0.263870095 C9.13937754,0.174560217 8.98240866,0.129905277 8.79296346,0.129905277 L8.79296346,0.129905277 L8.15155616,0.129905277 C7.96752368,0.129905277 7.81190798,0.181326116 7.68470907,0.284167794 C7.55751015,0.387009472 7.47225981,0.50067659 7.42895805,0.625169147 L7.42895805,0.625169147 L5.12313938,7.64817321 C5.06359946,7.82138024 5.00811908,8.00947226 4.95669824,8.21244926 C4.9052774,8.41542625 4.8579161,8.63058187 4.81461434,8.8579161 C4.7767253,8.63058187 4.73748309,8.41542625 4.69688769,8.21244926 C4.65629229,8.00947226 4.61163735,7.82138024 4.56292287,7.64817321 L4.56292287,7.64817321 L2.56562923,0.625169147 C2.52232747,0.473612991 2.43707713,0.353179973 2.30987821,0.263870095 C2.1826793,0.174560217 2.02435724,0.129905277 1.83491204,0.129905277 L1.83491204,0.129905277 L9.9475983e-14,0.129905277 L3.64546685,11.8700947 L5.61840325,11.8700947 Z M24.2995733,12 C25.1872594,12 25.996461,11.849797 26.7271782,11.5493911 C27.4578954,11.2489851 28.0830645,10.8308525 28.6026856,10.2949932 C29.1223067,9.75913396 29.5255544,9.12449256 29.8124285,8.39106901 C30.0993027,7.65764547 30.2427397,6.86062246 30.2427397,6 C30.2427397,5.13937754 30.0993027,4.34235453 29.8124285,3.60893099 C29.5255544,2.87550744 29.1223067,2.24221922 28.6026856,1.70906631 C28.0830645,1.1759134 27.4578954,0.757780785 26.7271782,0.454668471 C25.996461,0.151556157 25.1872594,0 24.2995733,0 C23.4118872,0 22.6013324,0.150202977 21.8679089,0.450608931 C21.1344853,0.751014885 20.5066098,1.1691475 19.9842824,1.70500677 C19.4619549,2.24086604 19.0573541,2.87550744 18.7704799,3.60893099 C18.4836058,4.34235453 18.3401687,5.13937754 18.3401687,6 C18.3401687,6.86062246 18.4836058,7.65764547 18.7704799,8.39106901 C19.0573541,9.12449256 19.4619549,9.75913396 19.9842824,10.2949932 C20.5066098,10.8308525 21.1344853,11.2489851 21.8679089,11.5493911 C22.6013324,11.849797 23.4118872,12 24.2995733,12 Z M24.2995733,10.1326116 C23.725825,10.1326116 23.2089102,10.037889 22.748829,9.84844384 C22.2887479,9.65899865 21.8976788,9.38700947 21.575622,9.03247632 C21.2535652,8.67794317 21.0059332,8.24492558 20.8327262,7.73342355 C20.6595192,7.22192152 20.5729157,6.64411367 20.5729157,6 C20.5729157,5.35588633 20.6595192,4.77807848 20.8327262,4.26657645 C21.0059332,3.75507442 21.2535652,3.32070365 21.575622,2.96346414 C21.8976788,2.60622463 22.2887479,2.33288227 22.748829,2.14343708 C23.2089102,1.95399188 23.725825,1.85926928 24.2995733,1.85926928 C24.8733216,1.85926928 25.3888832,1.95399188 25.846258,2.14343708 C26.3036328,2.33288227 26.6919955,2.60622463 27.011346,2.96346414 C27.3306964,3.32070365 27.575622,3.75507442 27.7461227,4.26657645 C27.9166234,4.77807848 28.0018737,5.35588633 28.0018737,6 C28.0018737,6.64411367 27.9166234,7.22192152 27.7461227,7.73342355 C27.575622,8.24492558 27.3306964,8.67794317 27.011346,9.03247632 C26.6919955,9.38700947 26.3036328,9.65899865 25.846258,9.84844384 C25.3888832,10.037889 24.8733216,10.1326116 24.2995733,10.1326116 Z M35.1214741,11.8700947 L35.1214741,7.28281461 L36.0551682,7.28281461 C36.271677,7.28281461 36.4354118,7.31258457 36.5463726,7.37212449 C36.6573333,7.43166441 36.7588218,7.53179973 36.8508381,7.67253045 L36.8508381,7.67253045 L39.3190383,11.4316644 C39.4110546,11.5723951 39.5233685,11.6806495 39.6559802,11.7564276 C39.7885918,11.8322057 39.9496202,11.8700947 40.1390654,11.8700947 L40.1390654,11.8700947 L42.1038827,11.8700947 L39.1647758,7.53450609 C38.9645052,7.24221922 38.7263455,7.01759134 38.4502968,6.86062246 C38.8616635,6.73071719 39.2283753,6.55751015 39.5504321,6.34100135 C39.8724889,6.12449256 40.1431249,5.87280108 40.3623401,5.58592693 C40.5815553,5.29905277 40.7493496,4.9797023 40.865723,4.62787551 C40.9820965,4.27604871 41.0402833,3.90257104 41.0402833,3.50744249 C41.0402833,3.00947226 40.9550329,2.55345061 40.7845323,2.13937754 C40.6140316,1.72530447 40.3461019,1.36941813 39.9807433,1.07171854 C39.6153848,0.774018945 39.1471845,0.542625169 38.5761425,0.377537212 C38.0051006,0.212449256 37.3190383,0.129905277 36.5179558,0.129905277 L36.5179558,0.129905277 L32.9374416,0.129905277 L32.9374416,11.8700947 L35.1214741,11.8700947 Z M36.4854795,5.71583221 L35.1214741,5.71583221 L35.1214741,1.81867388 L36.5179558,1.81867388 C37.3244511,1.81867388 37.9239098,1.97834912 38.316332,2.29769959 C38.7087542,2.61705007 38.9049653,3.0744249 38.9049653,3.66982409 C38.9049653,3.96752368 38.8562508,4.24086604 38.7588218,4.48985115 C38.6613929,4.73883627 38.5138963,4.95399188 38.316332,5.135318 C38.1187677,5.31664411 37.8670762,5.45872801 37.5612576,5.56156969 C37.2554389,5.66441137 36.8968462,5.71583221 36.4854795,5.71583221 L36.4854795,5.71583221 Z M46.6578539,11.8700947 L46.6578539,6.70635995 L47.3479756,6.70635995 C47.5969608,6.70635995 47.7891123,6.73748309 47.9244303,6.79972936 C48.0597483,6.86197564 48.1815345,6.96346414 48.2897889,7.10419486 L48.2897889,7.10419486 L51.6104926,11.4397835 C51.6970961,11.5805142 51.8039973,11.6874154 51.9311962,11.7604871 C52.0583951,11.8335589 52.2518999,11.8700947 52.5117104,11.8700947 L52.5117104,11.8700947 L54.4440514,11.8700947 L50.3682733,6.37347767 C50.2329553,6.1894452 50.0935778,6.03788904 49.9501407,5.9188092 C49.8067037,5.79972936 49.6456752,5.70771313 49.4670555,5.64276049 C49.5969608,5.57780785 49.718747,5.49391069 49.8324141,5.39106901 C49.9460812,5.28822733 50.065161,5.16102842 50.1896536,5.00947226 L50.1896536,5.00947226 L54.1436455,0.129905277 L52.2600189,0.129905277 C52.0326847,0.129905277 51.8445927,0.163734777 51.6957429,0.231393775 C51.5468931,0.299052774 51.4048092,0.419485792 51.2694912,0.592692828 L51.2694912,0.592692828 L48.0299783,4.69282815 C47.9325494,4.8173207 47.8161759,4.90798376 47.6808579,4.96481732 C47.5455399,5.02165088 47.3750392,5.05006766 47.1693559,5.05006766 L47.1693559,5.05006766 L46.6578539,5.05006766 L46.6578539,0.121786198 L44.4738214,0.121786198 L44.4738214,11.8700947 L46.6578539,11.8700947 Z M58.835641,11.8700947 L58.835641,6.73883627 L64.3403771,6.73883627 L64.3403771,11.8700947 L66.5406477,11.8700947 L66.5406477,0.129905277 L64.3403771,0.129905277 L64.3403771,5.17997294 L58.835641,5.17997294 L58.835641,0.129905277 L56.6353703,0.129905277 L56.6353703,11.8700947 L58.835641,11.8700947 Z M70.3720207,11.8700947 C70.5560532,11.8700947 70.7116689,11.8186739 70.8388678,11.7158322 C70.9660668,11.6129905 71.0513171,11.4993234 71.0946189,11.3748309 L71.0946189,11.3748309 L71.9714795,8.9797023 L76.8348083,8.9797023 L77.7116689,11.3748309 C77.7657961,11.5155616 77.8537528,11.6332882 77.975539,11.7280108 C78.0973252,11.8227334 78.2529409,11.8700947 78.4423861,11.8700947 L78.4423861,11.8700947 L80.1311547,11.8700947 L75.5195174,0.129905277 L73.2867704,0.129905277 L68.6751331,11.8700947 L70.3720207,11.8700947 Z M76.2745918,7.43707713 L72.531696,7.43707713 L73.960654,3.54803789 C74.0310194,3.36941813 74.1027379,3.16102842 74.1758097,2.92286874 C74.2488814,2.68470907 74.3233063,2.42760487 74.3990843,2.15155616 C74.4748624,2.42760487 74.5519937,2.68335589 74.6304781,2.9188092 C74.7089626,3.15426252 74.7806811,3.35859269 74.8456337,3.53179973 L74.8456337,3.53179973 L76.2745918,7.43707713 Z M84.1655047,11.8700947 L84.1655047,4.66035183 C84.1655047,4.51962111 84.1614452,4.36400541 84.1533261,4.19350474 C84.145207,4.02300406 84.1330284,3.8511502 84.1167903,3.67794317 L84.1167903,3.67794317 L90.2548146,11.4966171 C90.363069,11.6373478 90.4740298,11.7347767 90.5876969,11.7889039 C90.701364,11.8430311 90.8448011,11.8700947 91.0180081,11.8700947 L91.0180081,11.8700947 L92.1465602,11.8700947 L92.1465602,0.129905277 L90.2223383,0.129905277 L90.2223383,7.26657645 C90.2223383,7.42354533 90.2263978,7.59269283 90.2345169,7.77401894 C90.242636,7.95534506 90.257521,8.14073072 90.2791719,8.33017591 L90.2791719,8.33017591 L84.1167903,0.47902571 C84.0572503,0.403247632 84.0031231,0.342354533 83.9544087,0.296346414 C83.9056942,0.250338295 83.8556265,0.215155616 83.8042057,0.190798376 C83.7527848,0.166441137 83.6945981,0.150202977 83.6296455,0.142083897 C83.5646928,0.133964817 83.483502,0.129905277 83.3860731,0.129905277 L83.3860731,0.129905277 L82.2412828,0.129905277 L82.2412828,11.8700947 L84.1655047,11.8700947 Z M99.8994488,11.8700947 C100.787135,11.8700947 101.596336,11.7266576 102.327054,11.4397835 C103.057771,11.1529093 103.68294,10.7496617 104.202561,10.2300406 C104.722182,9.71041949 105.12543,9.09066306 105.412304,8.37077131 C105.699178,7.65087957 105.842615,6.86062246 105.842615,6 C105.842615,5.13937754 105.699178,4.34912043 105.412304,3.62922869 C105.12543,2.90933694 104.722182,2.29093369 104.202561,1.77401894 C103.68294,1.25710419 103.057771,0.853856563 102.327054,0.564276049 C101.596336,0.274695535 100.787135,0.129905277 99.8994488,0.129905277 L99.8994488,0.129905277 L95.4177167,0.129905277 L95.4177167,11.8700947 L99.8994488,11.8700947 Z M99.8994488,10.1326116 L97.6179874,10.1326116 L97.6179874,1.86738836 L99.8994488,1.86738836 C100.473197,1.86738836 100.988759,1.96211096 101.446134,2.15155616 C101.903508,2.34100135 102.291871,2.61299053 102.611221,2.96752368 C102.930572,3.32205683 103.176851,3.75507442 103.350058,4.26657645 C103.523265,4.77807848 103.609868,5.35588633 103.609868,6 C103.609868,6.64411367 103.523265,7.22192152 103.350058,7.73342355 C103.176851,8.24492558 102.930572,8.67794317 102.611221,9.03247632 C102.291871,9.38700947 101.903508,9.65899865 101.446134,9.84844384 C100.988759,10.037889 100.473197,10.1326116 99.8994488,10.1326116 L99.8994488,10.1326116 Z M111.41959,12 C112.069117,12 112.645571,11.9012179 113.148954,11.7036536 C113.652337,11.5060893 114.078589,11.2354533 114.42771,10.8917456 C114.77683,10.5480379 115.042053,10.1447903 115.223379,9.68200271 C115.404705,9.21921516 115.495369,8.72259811 115.495369,8.19215156 C115.495369,7.70500677 115.418237,7.29093369 115.263975,6.94993234 C115.109712,6.60893099 114.905382,6.32070365 114.650984,6.08525034 C114.396586,5.84979702 114.107006,5.65493911 113.782243,5.50067659 C113.457479,5.34641407 113.12595,5.21109608 112.787655,5.0947226 C112.44936,4.97834912 112.117831,4.86874154 111.793068,4.76589986 C111.468305,4.66305819 111.178724,4.54668471 110.924327,4.41677943 C110.669929,4.28687415 110.465599,4.12990528 110.311336,3.9458728 C110.157074,3.76184032 110.079942,3.53179973 110.079942,3.25575101 C110.079942,3.03924222 110.117831,2.84032476 110.193609,2.65899865 C110.269387,2.47767253 110.384408,2.32205683 110.53867,2.19215156 C110.692933,2.06224628 110.882378,1.96075778 111.107006,1.88768606 C111.331634,1.81461434 111.595504,1.77807848 111.898616,1.77807848 C112.234205,1.77807848 112.525138,1.82002706 112.771417,1.90392422 C113.017696,1.98782138 113.232852,2.0811908 113.416884,2.18403248 C113.600917,2.28687415 113.760592,2.38024357 113.89591,2.46414073 C114.031228,2.54803789 114.153014,2.58998647 114.261268,2.58998647 C114.369523,2.58998647 114.462892,2.56562923 114.541377,2.51691475 C114.619861,2.46820027 114.688873,2.38430311 114.748413,2.26522327 L114.748413,2.26522327 L115.284272,1.23410014 C114.872906,0.844384303 114.374935,0.541271989 113.790362,0.324763194 C113.205788,0.108254398 112.567087,0 111.874259,0 C111.262622,0 110.718643,0.0947225981 110.242324,0.284167794 C109.766005,0.473612991 109.36411,0.725304465 109.036641,1.03924222 C108.709171,1.35317997 108.460186,1.71312585 108.289685,2.11907984 C108.119184,2.52503383 108.033934,2.94181326 108.033934,3.36941813 C108.033934,3.9052774 108.111065,4.35588633 108.265328,4.72124493 C108.41959,5.08660352 108.623921,5.39106901 108.878318,5.63464141 C109.132716,5.8782138 109.422297,6.07577808 109.74706,6.22733424 C110.071823,6.37889039 110.401999,6.50879567 110.737588,6.61705007 C111.073176,6.72530447 111.403352,6.82543978 111.728115,6.91745602 C112.052879,7.00947226 112.342459,7.1217862 112.596857,7.25439783 C112.851255,7.38700947 113.055585,7.55074425 113.209848,7.74560217 C113.36411,7.94046008 113.441241,8.19215156 113.441241,8.50067659 C113.441241,9.05277402 113.270741,9.47631935 112.929739,9.77131258 C112.588738,10.0663058 112.107006,10.2138024 111.484543,10.2138024 C111.078589,10.2138024 110.730822,10.1583221 110.441241,10.0473613 C110.151661,9.93640054 109.899969,9.81326116 109.686167,9.67794317 C109.472364,9.54262517 109.286979,9.41948579 109.13001,9.30852503 C108.973041,9.19756428 108.826898,9.1420839 108.69158,9.1420839 C108.588738,9.1420839 108.495369,9.16779432 108.411471,9.21921516 C108.327574,9.27063599 108.255856,9.33423545 108.196316,9.41001353 L108.196316,9.41001353 L107.563028,10.4573748 C107.790362,10.6901218 108.048819,10.9012179 108.3384,11.0906631 C108.62798,11.2801083 108.939212,11.4424899 109.272094,11.5778078 C109.604976,11.7131258 109.952743,11.8173207 110.315396,11.8903924 C110.678048,11.9634641 111.046113,12 111.41959,12 Z" id="WORKHANDS"></path>
                        </g>
                    </g>
                </g>
            </g>
        </g>
    </g>
</svg>